<svg width="432" height="324" viewBox="0 0 432 324" fill="none" xmlns="http://www.w3.org/2000/svg">
<g clip-path="url(#clip0)">
<path d="M3.89189 0C2.86007 0.00121509 1.87086 0.412138 1.14125 1.14263C0.411639 1.87311 0.00121232 2.86352 0 3.89658V320.103C0.00121232 321.136 0.411639 322.127 1.14125 322.857C1.87086 323.588 2.86007 323.999 3.89189 324H428.108C429.14 323.999 430.129 323.588 430.859 322.857C431.588 322.127 431.999 321.136 432 320.103V3.89658C431.999 2.86352 431.588 1.87311 430.859 1.14263C430.129 0.412138 429.14 0.00121509 428.108 0H3.89189Z" fill="#E6E6E6"/>
<path d="M12.454 12.4689V311.531H419.546V12.4689H12.454Z" fill="white"/>
<path d="M310.937 28.6402C310.711 28.6404 310.495 28.7302 310.335 28.8899C310.176 29.0496 310.086 29.2661 310.086 29.4919V98.6096C310.086 98.8354 310.176 99.0519 310.335 99.2115C310.495 99.3712 310.711 99.461 310.937 99.4613H403.663C403.889 99.461 404.105 99.3712 404.265 99.2115C404.424 99.0519 404.514 98.8354 404.514 98.6096V29.4919C404.514 29.2661 404.424 29.0496 404.265 28.8899C404.105 28.7302 403.889 28.6404 403.663 28.6402H310.937Z" fill="#E6E6E6"/>
<path d="M312.808 31.3656V96.7358H401.792V31.3656H312.808Z" fill="white"/>
<path d="M310.937 126.017C310.711 126.017 310.495 126.107 310.335 126.266C310.176 126.426 310.086 126.643 310.086 126.868V195.986C310.086 196.212 310.176 196.428 310.335 196.588C310.495 196.748 310.711 196.838 310.937 196.838H403.663C403.889 196.838 404.105 196.748 404.265 196.588C404.424 196.428 404.514 196.212 404.514 195.986V126.868C404.514 126.643 404.424 126.426 404.265 126.266C404.105 126.107 403.889 126.017 403.663 126.017H310.937Z" fill="#E6E6E6"/>
<path d="M312.808 128.742V194.112H401.792V128.742H312.808Z" fill="white"/>
<path d="M310.937 223.393C310.711 223.393 310.495 223.483 310.335 223.643C310.176 223.803 310.086 224.019 310.086 224.245V293.363C310.086 293.588 310.176 293.805 310.335 293.965C310.495 294.124 310.711 294.214 310.937 294.214H403.663C403.889 294.214 404.105 294.124 404.265 293.965C404.424 293.805 404.514 293.588 404.514 293.363V224.245C404.514 224.019 404.424 223.803 404.265 223.643C404.105 223.483 403.889 223.393 403.663 223.393H310.937Z" fill="#E6E6E6"/>
<path d="M312.808 226.119V291.489H401.792V226.119H312.808Z" fill="white"/>
<path d="M385.096 84.1333L367.366 71.7149H367.36L367.359 71.717C366.756 69.8174 366.34 67.8631 366.118 65.8823C367.782 64.3644 368.964 62.3896 369.515 60.2039C369.586 60.2463 369.655 60.2929 369.721 60.3435C371.274 61.5875 374.225 48.3697 369.255 45.8817C369.255 45.8817 365.527 37.7955 358.383 39.6615C351.238 41.5276 347.2 44.3266 346.889 47.1257C346.579 49.9247 347.045 54.1233 347.045 54.1233C347.045 54.1233 347.475 50.9486 349.734 49.8264C348.617 51.1021 347.796 52.61 347.33 54.2415C346.865 55.873 346.766 57.5875 347.042 59.2617C347.318 60.9359 347.961 62.528 348.924 63.9236C349.888 65.3191 351.149 66.4834 352.617 67.3324C352.078 69.1862 351.357 71.589 350.752 73.3531H350.752L345.334 76.051L333.531 83.5146C333.531 83.5146 328.874 89.4202 327.318 96.2652C327.198 96.8037 327.072 97.3421 326.94 97.8805H389.902C387.802 91.5281 385.096 84.1333 385.096 84.1333Z" fill="#E6E6E6"/>
<path d="M381.2 284.099C382.411 283.324 383.695 282.668 385.033 282.14L371.84 266.456L363.121 264.222C361.59 263.362 360.383 262.024 359.682 260.413L364.351 260.368L366.13 250.28C367.211 247.348 366.771 244.776 364.351 242.656C364.786 239.941 363.556 237.942 360.295 236.814C357.051 233.996 352.256 233.32 349.379 237.833C348.217 237.764 347.073 238.147 346.186 238.901C345.3 239.656 344.738 240.724 344.619 241.883C341.975 244.959 344.91 256.249 345.78 260.551L350.42 260.505C350.152 262.096 349.373 263.557 348.2 264.664L348.137 264.601L338.863 269.143L325.67 284.414C326.972 284.925 328.223 285.558 329.406 286.304L328.045 291.488H337.484L339.996 287.833H340.122C340.122 287.77 340.128 287.707 340.128 287.644L341.89 285.078C341.93 287.152 341.873 289.288 341.73 291.488H371.09C371.045 289.661 371.033 287.845 371.033 286.041L374.317 290.812C374.563 290.451 374.826 290.113 375.089 289.77L375.736 291.488H383.254L381.451 284.626C381.4 284.436 381.315 284.258 381.2 284.099Z" fill="#E6E6E6"/>
<path d="M374.638 174.768L362.171 169.664C361.874 168.484 361.622 167.373 361.462 166.393C362.742 165.665 363.863 164.687 364.759 163.517C365.655 162.347 366.308 161.01 366.679 159.583L367.995 158.168C368.694 157.438 369.229 156.566 369.565 155.612C369.9 154.658 370.028 153.643 369.94 152.635C369.712 150.698 368.732 148.928 367.211 147.709C367.721 144.484 366.262 142.112 362.394 140.772C358.55 137.433 352.857 136.625 349.447 141.981C348.068 141.898 346.711 142.352 345.658 143.247C344.604 144.143 343.937 145.411 343.795 146.786C340.991 150.051 343.881 156.564 345.259 161.553C345.365 161.923 345.577 162.252 345.869 162.501C346.161 162.75 346.52 162.906 346.901 162.951C347.818 164.308 349.024 165.444 350.431 166.279C350.467 167.72 350.298 169.159 349.928 170.552L349.939 170.117L340.642 174.304L340.637 174.189L339.739 174.711L338.314 175.352C338.325 175.409 338.337 175.461 338.348 175.518L338.217 175.593C336.214 176.754 334.68 178.58 333.88 180.754L329.103 194.753H371.874C372.309 193.293 372.845 191.866 373.476 190.48L373.488 190.325L377.286 194.753H388.889L374.638 174.768Z" fill="#E6E6E6"/>
<path d="M162.997 290.854C176.828 290.854 188.041 279.628 188.041 265.781C188.041 251.933 176.828 240.707 162.997 240.707C149.166 240.707 137.954 251.933 137.954 265.781C137.954 279.628 149.166 290.854 162.997 290.854Z" fill="#E6E6E6"/>
<path d="M162.997 285.004C173.601 285.004 182.197 276.397 182.197 265.781C182.197 255.164 173.601 246.557 162.997 246.557C152.393 246.557 143.797 255.164 143.797 265.781C143.797 276.397 152.393 285.004 162.997 285.004Z" fill="white"/>
<path d="M172.616 276.28C172.501 276.28 172.387 276.257 172.281 276.213C172.175 276.169 172.079 276.104 171.998 276.023L152.758 256.76C152.601 256.595 152.515 256.374 152.518 256.146C152.52 255.918 152.612 255.699 152.774 255.538C152.935 255.376 153.153 255.284 153.381 255.282C153.609 255.279 153.829 255.365 153.994 255.522L173.234 274.785C173.356 274.908 173.439 275.064 173.473 275.233C173.507 275.403 173.49 275.579 173.423 275.739C173.357 275.899 173.245 276.036 173.102 276.132C172.958 276.228 172.789 276.28 172.616 276.28H172.616Z" fill="#536DFE"/>
<path d="M162.559 269.048L159.728 266.214C159.712 266.198 159.691 266.187 159.668 266.183C159.646 266.18 159.623 266.183 159.602 266.193C159.582 266.204 159.565 266.22 159.554 266.24C159.544 266.26 159.54 266.284 159.543 266.306C159.657 267.041 160.002 267.721 160.527 268.248C161.053 268.774 161.732 269.119 162.466 269.233C162.489 269.236 162.512 269.232 162.532 269.222C162.552 269.211 162.569 269.194 162.579 269.174C162.589 269.153 162.593 269.13 162.589 269.108C162.585 269.085 162.575 269.064 162.559 269.048L162.559 269.048Z" fill="#536DFE"/>
<path d="M163.433 262.497L166.268 265.335C166.285 265.351 166.305 265.362 166.328 265.366C166.351 265.369 166.374 265.366 166.395 265.356C166.415 265.345 166.432 265.329 166.443 265.309C166.453 265.288 166.457 265.265 166.454 265.242C166.34 264.506 165.995 263.825 165.469 263.298C164.943 262.771 164.263 262.426 163.527 262.312C163.505 262.308 163.481 262.312 163.461 262.323C163.44 262.333 163.424 262.35 163.413 262.37C163.403 262.391 163.399 262.414 163.403 262.437C163.406 262.46 163.417 262.481 163.433 262.497Z" fill="#536DFE"/>
<path d="M175.841 266.723C176.022 266.438 176.117 266.108 176.116 265.771C176.115 265.434 176.018 265.104 175.835 264.82C174.433 262.625 172.584 260.751 170.409 259.319C168.205 257.851 165.625 257.052 162.979 257.017C161.644 257.019 160.318 257.236 159.053 257.662C159.018 257.674 158.986 257.694 158.961 257.722C158.935 257.75 158.918 257.783 158.909 257.82C158.901 257.856 158.902 257.894 158.912 257.93C158.922 257.966 158.941 257.998 158.968 258.025L161.55 260.61C161.577 260.637 161.61 260.656 161.647 260.666C161.683 260.676 161.722 260.677 161.759 260.667C162.634 260.454 163.549 260.469 164.417 260.713C165.284 260.956 166.074 261.419 166.711 262.057C167.348 262.694 167.81 263.486 168.054 264.354C168.297 265.223 168.312 266.139 168.099 267.015C168.09 267.052 168.09 267.091 168.1 267.127C168.11 267.164 168.13 267.197 168.156 267.224L171.87 270.945C171.909 270.984 171.961 271.007 172.015 271.009C172.07 271.012 172.124 270.993 172.165 270.958C173.595 269.738 174.834 268.31 175.841 266.723Z" fill="#536DFE"/>
<path d="M162.996 271.026C162.202 271.026 161.418 270.846 160.703 270.498C159.989 270.151 159.362 269.645 158.871 269.02C158.38 268.395 158.037 267.667 157.869 266.889C157.7 266.112 157.709 265.307 157.896 264.534C157.906 264.497 157.905 264.459 157.895 264.422C157.885 264.386 157.866 264.352 157.839 264.326L154.186 260.666C154.147 260.627 154.095 260.605 154.04 260.602C153.986 260.6 153.932 260.618 153.89 260.654C152.486 261.872 151.243 263.264 150.191 264.797C149.994 265.082 149.885 265.418 149.878 265.765C149.872 266.111 149.969 266.451 150.156 266.742C151.536 268.939 153.367 270.817 155.528 272.25C157.735 273.724 160.326 274.516 162.979 274.528C164.327 274.525 165.666 274.312 166.949 273.896C166.985 273.885 167.017 273.864 167.042 273.837C167.068 273.809 167.086 273.776 167.095 273.739C167.104 273.703 167.103 273.665 167.093 273.629C167.083 273.592 167.063 273.559 167.037 273.533L164.442 270.936C164.416 270.909 164.382 270.89 164.346 270.879C164.309 270.869 164.271 270.869 164.234 270.878C163.829 270.977 163.413 271.026 162.996 271.026Z" fill="#536DFE"/>
<path d="M67.979 290.854C81.8102 290.854 93.0226 279.628 93.0226 265.781C93.0226 251.933 81.8102 240.707 67.979 240.707C54.1479 240.707 42.9355 251.933 42.9355 265.781C42.9355 279.628 54.1479 290.854 67.979 290.854Z" fill="#E6E6E6"/>
<path d="M67.979 285.004C78.5829 285.004 87.1791 276.397 87.1791 265.781C87.1791 255.164 78.5829 246.557 67.979 246.557C57.3751 246.557 48.779 255.164 48.779 265.781C48.779 276.397 57.3751 285.004 67.979 285.004Z" fill="white"/>
<path d="M75.355 278.038C74.2881 278.038 72.7894 277.652 70.5451 276.397C67.7558 274.904 65.2087 272.997 62.9908 270.739C60.6953 268.55 58.7783 265.995 57.3179 263.178C55.3043 259.512 55.6475 257.59 56.0312 256.768C56.4742 255.87 57.1707 255.122 58.0345 254.617C58.5296 254.292 59.0536 254.013 59.5999 253.785C59.6545 253.761 59.7053 253.739 59.7507 253.718C59.9315 253.616 60.1319 253.553 60.3388 253.534C60.5457 253.516 60.7542 253.541 60.9504 253.609C61.3867 253.819 61.7749 254.117 62.0906 254.485C63.2274 255.762 64.1864 257.187 64.9416 258.722C65.252 259.253 65.4428 259.845 65.5007 260.457C65.4554 261.063 65.2103 261.637 64.8038 262.089C64.7322 262.186 64.6612 262.28 64.5923 262.371C64.1764 262.918 64.0851 263.076 64.1452 263.359C64.2671 263.926 65.1761 265.615 66.6699 267.108C68.1637 268.6 69.8023 269.453 70.3713 269.574C70.6654 269.637 70.8266 269.542 71.3907 269.111C71.4716 269.049 71.5546 268.985 71.6416 268.921C72.0936 268.494 72.6765 268.233 73.2955 268.18H73.2988C73.9193 268.244 74.5159 268.453 75.0402 268.792C76.024 269.288 78.271 270.63 79.2564 271.625C79.6241 271.94 79.9227 272.328 80.1337 272.764C80.2014 272.961 80.2266 273.17 80.2078 273.378C80.1889 273.585 80.1264 273.786 80.0244 273.968C80.0042 274.013 79.9817 274.063 79.9582 274.118C79.7282 274.664 79.4484 275.188 79.1225 275.682C78.6162 276.546 77.8678 277.242 76.9701 277.684C76.4655 277.923 75.9132 278.044 75.355 278.038Z" fill="#536DFE"/>
<path d="M258.752 290.854C272.583 290.854 283.796 279.628 283.796 265.781C283.796 251.933 272.583 240.707 258.752 240.707C244.921 240.707 233.708 251.933 233.708 265.781C233.708 279.628 244.921 290.854 258.752 290.854Z" fill="#E6E6E6"/>
<path d="M258.752 285.004C269.356 285.004 277.952 276.397 277.952 265.781C277.952 255.164 269.356 246.557 258.752 246.557C248.148 246.557 239.552 255.164 239.552 265.781C239.552 276.397 248.148 285.004 258.752 285.004Z" fill="white"/>
<path d="M262.25 277.163H255.254C255.022 277.163 254.799 277.071 254.635 276.907C254.471 276.742 254.379 276.52 254.379 276.287C254.379 276.055 254.471 275.833 254.635 275.668C254.799 275.504 255.022 275.412 255.254 275.412H262.25C262.482 275.412 262.704 275.504 262.868 275.668C263.032 275.833 263.125 276.055 263.125 276.287C263.125 276.52 263.032 276.742 262.868 276.907C262.704 277.071 262.482 277.163 262.25 277.163Z" fill="#536DFE"/>
<path d="M258.752 272.785C256.665 272.783 254.665 271.952 253.189 270.474C251.714 268.997 250.884 266.994 250.881 264.905V263.154C250.881 262.922 250.973 262.699 251.137 262.535C251.301 262.37 251.524 262.278 251.756 262.278C251.988 262.278 252.21 262.37 252.374 262.535C252.538 262.699 252.63 262.922 252.63 263.154V264.905C252.632 266.53 253.277 268.087 254.425 269.235C255.573 270.384 257.129 271.029 258.752 271.029C260.375 271.029 261.931 270.384 263.079 269.235C264.227 268.087 264.872 266.53 264.874 264.905V263.154C264.874 262.922 264.966 262.699 265.13 262.535C265.294 262.37 265.516 262.278 265.748 262.278C265.98 262.278 266.203 262.37 266.367 262.535C266.531 262.699 266.623 262.922 266.623 263.154V264.905C266.62 266.994 265.79 268.997 264.315 270.475C262.839 271.952 260.839 272.783 258.752 272.785Z" fill="#536DFE"/>
<path d="M258.752 277.163C258.637 277.163 258.523 277.14 258.417 277.096C258.311 277.052 258.215 276.988 258.134 276.907C258.052 276.825 257.988 276.729 257.944 276.623C257.9 276.516 257.877 276.402 257.877 276.287V271.91C257.877 271.677 257.97 271.455 258.134 271.29C258.298 271.126 258.52 271.034 258.752 271.034C258.984 271.034 259.206 271.126 259.37 271.29C259.534 271.455 259.627 271.677 259.627 271.91V276.287C259.627 276.402 259.604 276.516 259.56 276.623C259.516 276.729 259.452 276.825 259.37 276.907C259.289 276.988 259.193 277.052 259.087 277.096C258.981 277.14 258.867 277.163 258.752 277.163Z" fill="#536DFE"/>
<path d="M258.752 269.283C258.175 269.281 257.604 269.164 257.073 268.938C256.542 268.711 256.062 268.38 255.661 267.964C254.841 267.136 254.38 266.017 254.379 264.85V258.776C254.377 258.203 254.488 257.636 254.704 257.106C254.921 256.576 255.24 256.094 255.643 255.687C256.046 255.281 256.525 254.958 257.052 254.736C257.58 254.515 258.146 254.4 258.718 254.398C258.729 254.398 258.741 254.398 258.752 254.398C259.328 254.392 259.899 254.501 260.433 254.719C260.966 254.936 261.45 255.259 261.858 255.666C262.265 256.074 262.587 256.559 262.804 257.093C263.022 257.627 263.131 258.199 263.125 258.776V264.85C263.13 266.018 262.673 267.141 261.854 267.972C261.034 268.803 259.918 269.274 258.752 269.283Z" fill="#536DFE"/>
<path d="M35.1691 28.7768C34.5631 28.7776 33.982 29.0189 33.5535 29.448C33.1249 29.8771 32.8839 30.4588 32.8831 31.0656V216.798C32.8839 217.404 33.1249 217.986 33.5535 218.415C33.982 218.844 34.5631 219.086 35.1691 219.086H284.343C284.949 219.086 285.53 218.844 285.959 218.415C286.387 217.986 286.628 217.404 286.629 216.798V31.0656C286.628 30.4588 286.387 29.8771 285.959 29.448C285.53 29.0189 284.949 28.7776 284.343 28.7768H35.1691Z" fill="#E6E6E6"/>
<path d="M40.1984 36.1008V211.763H279.314V36.1008H40.1984Z" fill="white"/>
<path d="M205.306 211.762L205.736 210.074L201.999 194.571L201.634 193.049L201.359 191.912L201.797 191.765L223.88 184.398L224.163 188.489L225.764 211.762H205.306Z" fill="#FFB9B9"/>
<path d="M117.514 194.571L113.776 210.074L114.207 211.762H93.7484L95.3497 188.489L95.6324 184.398L118.154 191.912L117.514 194.571Z" fill="#FFB9B9"/>
<path d="M178.211 132.409L142.552 136.167C146.298 126.514 145.605 115.434 142.552 103.598H168.202C169.887 113.699 173.271 123.441 178.211 132.409Z" fill="#FFB9B9"/>
<path d="M155.69 118.63C166.4 118.63 175.083 109.937 175.083 99.2133C175.083 88.4898 166.4 79.7967 155.69 79.7967C144.979 79.7967 136.297 88.4898 136.297 99.2133C136.297 109.937 144.979 118.63 155.69 118.63Z" fill="#FFB9B9"/>
<path d="M211.369 139.927C207.275 158.042 203.906 175.264 201.797 191.765C201.739 192.196 201.685 192.623 201.634 193.05C201.564 193.608 201.495 194.167 201.433 194.726C200.743 200.49 200.222 206.169 199.87 211.763H121.821C121.902 206.487 121.728 201.092 121.336 195.623C119.991 176.863 116.04 157.246 110.648 138.673L110.686 138.657L144.807 126.857L145.055 126.772C154.891 131.317 164.684 131.527 174.399 124.629C174.43 124.61 174.457 124.587 174.488 124.567L206.294 137.815L206.306 137.819L211.369 139.927Z" fill="#536DFE"/>
<path d="M234.514 185.648L195.728 196.296L205.111 137.42L211.097 139.418C213.292 140.15 215.269 141.421 216.849 143.114C218.428 144.807 219.56 146.868 220.141 149.111L234.514 185.648Z" fill="#536DFE"/>
<path d="M84.9983 185.648L123.785 196.296L114.401 137.42L108.415 139.418C106.22 140.15 104.243 141.421 102.663 143.114C101.084 144.807 99.9524 146.868 99.3717 149.111L84.9983 185.648Z" fill="#536DFE"/>
<path d="M154.443 66.368C151.144 66.5197 147.931 67.4669 145.076 69.1292C144.42 69.5117 144.723 70.8912 144.116 71.3411C143.352 71.9076 141.693 71.5635 141.017 72.2272C138.832 74.362 137.151 76.9573 136.094 79.8243C135.037 82.6913 134.631 85.758 134.906 88.8017L135.984 99.5264L138.525 96.7436C143.082 91.6847 149.408 88.5752 156.193 88.0594C156.481 88.0398 156.77 88.0244 157.059 88.0132L155.104 84.5874L158.502 87.9897C160.052 88.0067 161.599 88.1328 163.132 88.367L160.532 83.8111L165.521 88.8063L165.521 88.8065C167.562 89.2558 169.468 90.1786 171.087 91.5006C172.706 92.8227 173.992 94.5069 174.842 96.4178L175.396 97.6474L176.016 87.4159C176.078 84.588 175.558 81.7776 174.488 79.1596C173.418 76.5416 171.822 74.1718 169.799 72.1977C167.775 70.2236 165.368 68.6873 162.726 67.6844C160.085 66.6815 157.265 66.2334 154.443 66.368Z" fill="#2F2E41"/>
<path d="M136.495 102.443C137.351 102.443 138.046 100.792 138.046 98.755C138.046 96.7185 137.351 95.0676 136.495 95.0676C135.638 95.0676 134.944 96.7185 134.944 98.755C134.944 100.792 135.638 102.443 136.495 102.443Z" fill="#FFB9B9"/>
<path d="M175.264 101.278C176.12 101.278 176.814 99.6271 176.814 97.5906C176.814 95.554 176.12 93.9031 175.264 93.9031C174.407 93.9031 173.713 95.554 173.713 97.5906C173.713 99.6271 174.407 101.278 175.264 101.278Z" fill="#FFB9B9"/>
</g>
<defs>
<clipPath id="clip0">
<rect width="432" height="324" fill="white"/>
</clipPath>
</defs>
</svg>
